<svg width="60" height="24" viewBox="0 0 60 24" fill="none" xmlns="http://www.w3.org/2000/svg">
<path d="M26.1599 10.3283H24.3567V16.4005H22.2734V10.3283H21.1259V9.32421L22.2734 8.76412V8.20402C22.2734 7.33429 22.4874 6.69906 22.9155 6.29834C23.3435 5.89762 24.0288 5.69727 24.9714 5.69727C25.6909 5.69727 26.3307 5.80428 26.8908 6.01829L26.358 7.54831C25.9391 7.41625 25.552 7.35022 25.1968 7.35022C24.9008 7.35022 24.6868 7.43902 24.5548 7.61661C24.4227 7.78965 24.3567 8.01277 24.3567 8.28599V8.76412H26.1599V10.3283Z" fill="#2F2E41"/>
<path d="M32.1889 16.4005L31.9088 15.4238H31.7996C31.5764 15.7789 31.26 16.0544 30.8501 16.2502C30.4403 16.4415 29.9736 16.5371 29.4499 16.5371C28.5528 16.5371 27.8766 16.2981 27.4213 15.8199C26.9659 15.3372 26.7382 14.6451 26.7382 13.7435V8.76412H28.8215V13.2244C28.8215 13.7754 28.9194 14.1897 29.1152 14.4675C29.311 14.7407 29.6229 14.8773 30.051 14.8773C30.6338 14.8773 31.055 14.6838 31.3146 14.2967C31.5742 13.9051 31.7039 13.2585 31.7039 12.3569V8.76412H33.7872V16.4005H32.1889Z" fill="#2F2E41"/>
<path d="M40.7178 14.1328C40.7178 14.916 40.4446 15.5126 39.8981 15.9224C39.3563 16.3322 38.5434 16.5371 37.4597 16.5371C36.9041 16.5371 36.4306 16.4984 36.039 16.421C35.6474 16.3481 35.2808 16.2389 34.9393 16.0931V14.3719C35.3263 14.554 35.7612 14.7066 36.2439 14.8295C36.7311 14.9525 37.1591 15.0139 37.528 15.0139C38.2839 15.0139 38.6618 14.7954 38.6618 14.3582C38.6618 14.1943 38.6117 14.0622 38.5116 13.9621C38.4114 13.8573 38.2384 13.7412 37.9925 13.6137C37.7466 13.4817 37.4187 13.3291 37.0089 13.1561C36.4215 12.9102 35.9889 12.6825 35.7111 12.473C35.4379 12.2636 35.2375 12.0245 35.11 11.7558C34.9871 11.4826 34.9256 11.1479 34.9256 10.7518C34.9256 10.0733 35.1874 9.54961 35.7111 9.18077C36.2393 8.80738 36.9861 8.62068 37.9515 8.62068C38.8713 8.62068 39.7661 8.82104 40.6358 9.22176L40.0074 10.7244C39.6249 10.5605 39.2675 10.4262 38.9351 10.3215C38.6026 10.2167 38.2634 10.1644 37.9173 10.1644C37.3026 10.1644 36.9952 10.3306 36.9952 10.663C36.9952 10.8497 37.0931 11.0113 37.2889 11.1479C37.4893 11.2845 37.9242 11.4872 38.5935 11.7558C39.1901 11.9972 39.6272 12.2226 39.905 12.432C40.1827 12.6415 40.3877 12.8829 40.5197 13.1561C40.6518 13.4293 40.7178 13.7549 40.7178 14.1328Z" fill="#2F2E41"/>
<path d="M44.923 10.1029C44.4813 10.1029 44.1353 10.244 43.8848 10.5264C43.6344 10.8041 43.4909 11.2003 43.4545 11.7149H46.3779C46.3688 11.2003 46.2345 10.8041 45.9749 10.5264C45.7154 10.244 45.3647 10.1029 44.923 10.1029ZM45.2168 16.5371C43.9873 16.5371 43.0265 16.1979 42.3343 15.5194C41.6422 14.8409 41.2961 13.8801 41.2961 12.637C41.2961 11.3574 41.6149 10.3693 42.2524 9.67256C42.8944 8.97131 43.7801 8.62068 44.9094 8.62068C45.9886 8.62068 46.8287 8.92805 47.4298 9.54278C48.0309 10.1575 48.3314 11.0068 48.3314 12.0905V13.1014H43.4067C43.4295 13.6934 43.6048 14.1556 43.9326 14.488C44.2605 14.8204 44.7204 14.9866 45.3124 14.9866C45.7723 14.9866 46.2072 14.9388 46.617 14.8432C47.0268 14.7476 47.4548 14.595 47.9011 14.3855V15.9975C47.5368 16.1797 47.1475 16.314 46.7331 16.4005C46.3187 16.4916 45.8133 16.5371 45.2168 16.5371Z" fill="#2F2E41"/>
<path d="M51.5258 16.4005H49.4425V5.7724H51.5258V16.4005Z" fill="#2F2E41"/>
<path d="M52.0426 8.76412H54.324L55.7652 13.0604C55.8881 13.4338 55.9724 13.8755 56.0179 14.3855H56.0589C56.109 13.9165 56.2069 13.4748 56.3526 13.0604L57.7665 8.76412H60L56.7692 17.3773C56.4733 18.1741 56.0498 18.7707 55.4988 19.1668C54.9524 19.563 54.3126 19.7611 53.5794 19.7611C53.2197 19.7611 52.8668 19.7224 52.5207 19.645V17.992C52.7712 18.0512 53.0444 18.0808 53.3404 18.0808C53.7092 18.0808 54.0303 17.967 54.3035 17.7393C54.5812 17.5161 54.7975 17.1769 54.9524 16.7215L55.0753 16.3459L52.0426 8.76412Z" fill="#2F2E41"/>
<path d="M8.38624 1.03453C7.48034 1.03476 6.61162 1.35128 5.97104 1.9145C5.33048 2.47772 4.9705 3.24156 4.97023 4.03807V5.40252H3.4184C2.96948 5.40219 2.52488 5.4797 2.11006 5.63061C1.69524 5.78152 1.31833 6.00287 1.00091 6.28199C0.683476 6.56109 0.431756 6.89251 0.260147 7.25725C0.0885383 7.62199 0.000408968 8.01291 0.000801443 8.40763V11.4101H4.96943V14.139H3.4176C2.51144 14.1389 1.64234 14.4553 1.00144 15.0185C0.360538 15.5818 0.000316538 16.3458 0 17.1425V22.3316H3.4192C3.8677 22.3314 4.31175 22.2536 4.72603 22.1024C5.14029 21.9514 5.51663 21.73 5.8336 21.451C6.15055 21.172 6.40189 20.8408 6.57328 20.4764C6.74465 20.1119 6.83271 19.7215 6.83242 19.3271H6.83679V17.3447L6.82765 17.3457V4.71592L6.83521 4.7175V4.03859C6.83599 3.67659 6.99961 3.32956 7.29035 3.07324C7.58107 2.81692 7.97532 2.67213 8.38704 2.67047H14.3216V4.03859C14.3203 4.40043 14.1561 4.7471 13.865 5.00279C13.5738 5.25848 13.1793 5.4024 12.7678 5.40304H7.53752V7.04073H12.767C13.6729 7.04078 14.5417 6.72442 15.1823 6.16125C15.8229 5.59808 16.1829 4.83423 16.183 4.03772V1.03418L8.38624 1.03453ZM4.97023 9.77225H1.86538V8.4078C1.86606 8.04537 2.02987 7.69792 2.32103 7.44136C2.61218 7.18481 3.007 7.04001 3.4192 7.03863H4.97103L4.97023 9.77225ZM4.97023 19.3286C4.96955 19.6904 4.80588 20.0373 4.51505 20.2932C4.22422 20.5493 3.8299 20.6935 3.4184 20.6944H1.86458V17.1434C1.86495 16.7813 2.02885 16.4343 2.32021 16.1784C2.6116 15.9225 3.00659 15.7788 3.4184 15.779H4.97023V19.3286ZM7.53752 11.4099H11.4569V12.7758C11.4554 13.1376 11.2911 13.4841 11 13.7397C10.7088 13.9954 10.3145 14.1394 9.90305 14.1402H7.53752V15.779H9.90385C10.3525 15.7792 10.7968 15.7016 11.2114 15.5508C11.6259 15.3999 12.0026 15.1787 12.3198 14.8997C12.6371 14.6208 12.8887 14.2896 13.0603 13.9251C13.2319 13.5606 13.3201 13.1699 13.3199 12.7754H13.3214V9.7719H7.53752V11.4099Z" fill="#6C63FF"/>
</svg>
